<svg width="239" height="24" viewBox="0 0 239 24" fill="none" xmlns="http://www.w3.org/2000/svg">
<mask id="mask0_6265_7155" style="mask-type:luminance" maskUnits="userSpaceOnUse" x="0" y="0" width="239" height="24">
<path d="M238.8 0H0V24H238.8V0Z" fill="white"/>
</mask>
<g mask="url(#mask0_6265_7155)">
<path d="M24.0982 0H0.178711V24H24.0982V0Z" fill="#00B67A"/>
<path d="M50.0113 0H26.0918V24H50.0113V0Z" fill="#00B67A"/>
<path d="M75.9251 0H52.0049V24H75.9251V0Z" fill="#00B67A"/>
<path d="M101.838 0H77.918V24H101.838V0Z" fill="#00B67A"/>
<path d="M127.751 0H115.791V24H127.751V0Z" fill="#DCDCE6"/>
<path d="M115.791 0H103.831V24H115.791V0Z" fill="#00B67A"/>
<path d="M12.1388 16.1758L15.7765 15.2508L17.2961 19.9508L12.1388 16.1758ZM20.5103 10.1008H14.1068L12.1388 4.05078L10.1701 10.1008H3.7666L8.94951 13.8508L6.98082 19.9008L12.1637 16.1508L15.353 13.8508L20.5103 10.1008Z" fill="white"/>
<path d="M38.0519 16.1758L41.6896 15.2508L43.2092 19.9508L38.0519 16.1758ZM46.4234 10.1008H40.0198L38.0519 4.05078L36.0832 10.1008H29.6797L34.8626 13.8508L32.8939 19.9008L38.0768 16.1508L41.2661 13.8508L46.4234 10.1008Z" fill="white"/>
<path d="M63.964 16.1758L67.6017 15.2508L69.122 19.9508L63.964 16.1758ZM72.3362 10.1008H65.9327L63.964 4.05078L61.9953 10.1008H55.5918L60.7747 13.8508L58.806 19.9008L63.9889 16.1508L67.1782 13.8508L72.3362 10.1008Z" fill="white"/>
<path d="M89.8771 16.1758L93.5148 15.2508L95.0351 19.9508L89.8771 16.1758ZM98.2493 10.1008H91.8458L89.8771 4.05078L87.9084 10.1008H81.5049L86.6878 13.8508L84.7191 19.9008L89.902 16.1508L93.0913 13.8508L98.2493 10.1008Z" fill="white"/>
<path d="M115.79 16.1758L119.428 15.2508L120.948 19.9508L115.79 16.1758ZM124.163 10.1008H117.759L115.79 4.05078L113.822 10.1008H107.419L112.601 13.8508L110.633 19.9008L115.815 16.1508L119.005 13.8508L124.163 10.1008Z" fill="white"/>
<path d="M165.911 8.64844H175.98V10.4442H171.977V20.74H169.793V10.4442H165.911V8.64844ZM175.495 12.0006H177.314V13.6766C177.314 13.4372 177.436 13.1977 177.678 12.9583C177.8 12.7188 178.042 12.4794 178.285 12.3597C178.527 12.1203 178.771 12.0006 179.013 11.8809C179.255 11.7612 179.62 11.7612 179.862 11.7612C180.104 11.7612 180.226 11.7612 180.347 11.7612C180.469 11.7612 180.469 11.7612 180.59 11.7612V13.6766C180.469 13.6766 180.347 13.6766 180.104 13.5569C179.984 13.5569 179.862 13.5569 179.62 13.5569C179.255 13.5569 179.013 13.6766 178.649 13.7964C178.407 13.9161 178.042 14.1555 177.921 14.3949C177.678 14.6343 177.557 14.9935 177.436 15.3527C177.314 15.8316 177.193 16.1907 177.193 16.6696V20.8597H175.252L175.495 12.0006ZM189.931 20.74H187.99V19.5428C187.747 20.0217 187.384 20.3808 186.898 20.6203C186.413 20.8597 185.928 20.9794 185.443 20.9794C184.23 20.9794 183.381 20.74 182.895 20.1414C182.41 19.5428 182.167 18.7048 182.167 17.5076V11.8809H184.108V17.2682C184.108 17.9865 184.23 18.585 184.594 18.9442C184.836 19.3034 185.321 19.4231 185.807 19.4231C186.17 19.4231 186.534 19.4231 186.898 19.1837C187.141 19.0639 187.384 18.9442 187.626 18.7048C187.747 18.4653 187.869 18.2259 187.99 17.9865C188.111 17.7471 188.111 17.3879 188.111 17.0287V11.8809H190.053L189.931 20.74ZM193.207 17.9865C193.328 18.585 193.45 18.9442 193.814 19.1837C194.177 19.4231 194.663 19.5428 195.147 19.5428C195.39 19.5428 195.512 19.5428 195.754 19.5428C195.997 19.5428 196.24 19.4231 196.361 19.4231C196.604 19.3034 196.725 19.1837 196.846 19.0639C196.967 18.9442 197.089 18.7048 197.089 18.4653C197.089 18.2259 196.967 17.9865 196.846 17.8668C196.604 17.7471 196.482 17.5076 196.24 17.5076C195.997 17.3879 195.633 17.2682 195.269 17.2682C194.905 17.1485 194.541 17.1485 194.177 17.0287C193.814 16.909 193.45 16.909 193.085 16.7893C192.721 16.6696 192.479 16.5498 192.115 16.3104C191.872 16.071 191.63 15.8316 191.508 15.5921C191.387 15.233 191.266 14.8738 191.266 14.5146C191.266 14.0358 191.387 13.6766 191.63 13.3175C191.872 12.9583 192.236 12.7188 192.479 12.4794C192.843 12.24 193.207 12.1203 193.692 12.0006C194.056 11.8809 194.541 11.8809 195.027 11.8809C195.512 11.8809 195.997 11.8809 196.361 12.0006C196.725 12.1203 197.21 12.24 197.453 12.4794C197.817 12.7188 198.059 12.9583 198.302 13.3175C198.544 13.6766 198.666 14.0358 198.787 14.5146H196.725C196.604 14.0358 196.361 13.6766 196.118 13.5569C195.754 13.4372 195.39 13.3175 194.905 13.3175C194.784 13.3175 194.541 13.3175 194.42 13.3175C194.177 13.3175 194.056 13.4372 193.814 13.4372C193.692 13.4372 193.45 13.5569 193.328 13.6766C193.207 13.7964 193.085 14.0358 193.207 14.1555C193.207 14.3949 193.328 14.6343 193.45 14.7541C193.57 14.8738 193.814 14.9935 194.056 15.1132C194.298 15.233 194.663 15.233 195.027 15.3527C195.39 15.4724 195.754 15.4724 196.118 15.5921C196.482 15.7119 196.846 15.7119 197.21 15.8316C197.574 15.9513 197.817 16.071 198.18 16.3104C198.544 16.5498 198.666 16.7893 198.787 17.0287C198.908 17.2682 199.03 17.7471 199.03 18.1062C199.03 18.585 198.908 19.0639 198.666 19.4231C198.423 19.7823 198.059 20.1414 197.695 20.2611C197.331 20.5005 196.846 20.6203 196.361 20.74C195.876 20.8597 195.39 20.8597 194.905 20.8597C194.42 20.8597 193.814 20.8597 193.328 20.6203C192.843 20.5005 192.479 20.2611 192.115 20.0217C191.751 19.7823 191.508 19.4231 191.266 19.0639C191.023 18.7048 190.902 18.2259 190.902 17.7471L193.207 17.9865ZM199.757 12.0006H201.213V9.36679H203.154V12.0006H204.974V13.4372H203.154V18.1062C203.154 18.3456 203.154 18.4653 203.154 18.585C203.154 18.7048 203.154 18.8245 203.276 18.9442C203.397 19.0639 203.397 19.1837 203.518 19.1837C203.64 19.1837 203.761 19.3034 204.003 19.3034C204.125 19.3034 204.247 19.3034 204.367 19.3034C204.489 19.3034 204.61 19.3034 204.732 19.3034V20.8597C204.489 20.8597 204.247 20.8597 204.125 20.9794C203.883 20.9794 203.64 20.9794 203.518 20.9794C203.033 20.9794 202.548 20.9794 202.305 20.8597C202.063 20.74 201.82 20.6203 201.577 20.3808C201.335 20.1414 201.213 19.902 201.213 19.6626C201.092 19.3034 201.092 19.0639 201.092 18.7048V13.5569H199.637L199.757 12.0006ZM206.43 12.0006H208.25V13.1977C208.493 12.7188 208.856 12.3597 209.463 12.1203C209.948 11.8809 210.555 11.7612 211.04 11.7612C211.768 11.7612 212.374 11.8809 212.86 12.1203C213.345 12.3597 213.83 12.7188 214.194 13.078C214.558 13.5569 214.8 14.0358 214.922 14.5146C215.043 15.1132 215.165 15.7119 215.165 16.3104C215.165 16.909 215.043 17.5076 214.922 17.9865C214.8 18.4653 214.558 19.0639 214.194 19.4231C213.83 19.902 213.466 20.2611 212.981 20.5005C212.496 20.74 211.889 20.8597 211.283 20.8597C211.04 20.8597 210.676 20.8597 210.433 20.74C210.19 20.74 209.827 20.6203 209.584 20.5005C209.342 20.3808 209.099 20.2611 208.856 20.0217C208.613 19.902 208.493 19.6626 208.25 19.4231V23.8527H206.309L206.43 12.0006ZM213.466 16.4301C213.466 16.071 213.466 15.5921 213.345 15.233C213.223 14.8738 213.102 14.5146 212.86 14.2752C212.617 14.0358 212.374 13.7964 212.132 13.5569C211.768 13.4372 211.404 13.3175 211.04 13.3175C210.19 13.3175 209.584 13.5569 209.099 14.1555C208.735 14.7541 208.493 15.4724 208.493 16.4301C208.493 16.909 208.493 17.2682 208.613 17.6274C208.735 17.9865 208.857 18.3456 209.099 18.585C209.342 18.8245 209.584 19.0639 209.948 19.1837C210.312 19.3034 210.555 19.4231 211.04 19.4231C211.525 19.4231 211.889 19.3034 212.132 19.1837C212.496 19.0639 212.738 18.7048 212.86 18.4653C213.102 18.2259 213.223 17.8668 213.345 17.5076C213.345 17.1485 213.466 16.7893 213.466 16.4301ZM216.863 8.64844H218.804V10.4442H216.863V8.64844ZM216.863 12.0006H218.804V20.8597H216.863V12.0006ZM220.624 8.64844H222.565V20.8597H220.624V8.64844ZM228.752 20.9794C228.024 20.9794 227.417 20.8597 226.811 20.6203C226.326 20.3808 225.84 20.0217 225.355 19.6626C224.991 19.1837 224.627 18.7048 224.506 18.2259C224.263 17.6274 224.142 17.0287 224.142 16.3104C224.142 15.5921 224.263 14.9935 224.506 14.3949C224.749 13.7964 224.991 13.3175 225.355 12.9583C225.719 12.5991 226.204 12.24 226.811 12.0006C227.417 11.7612 228.024 11.6414 228.752 11.6414C229.479 11.6414 230.086 11.7612 230.693 12.0006C231.178 12.24 231.663 12.5991 232.149 12.9583C232.513 13.3175 232.876 13.9161 232.998 14.3949C233.24 14.9935 233.362 15.5921 233.362 16.3104C233.362 17.0287 233.24 17.6274 232.998 18.2259C232.755 18.8245 232.513 19.3034 232.149 19.6626C231.785 20.0217 231.299 20.3808 230.693 20.6203C230.086 20.9794 229.359 21.0992 228.752 20.9794ZM228.752 19.5428C229.237 19.5428 229.601 19.4231 229.843 19.3034C230.208 19.1837 230.45 18.8245 230.693 18.585C230.936 18.3456 231.057 17.9865 231.178 17.6274C231.299 17.2682 231.299 16.909 231.299 16.5498C231.299 16.1907 231.299 15.8316 231.178 15.4724C231.057 15.1132 230.936 14.7541 230.693 14.5146C230.45 14.2752 230.208 14.0358 229.843 13.7964C229.479 13.5569 229.116 13.5569 228.752 13.5569C228.266 13.5569 227.903 13.6766 227.66 13.7964C227.296 13.9161 227.053 14.1555 226.811 14.5146C226.568 14.8738 226.447 15.1132 226.326 15.4724C226.204 15.8316 226.204 16.1907 226.204 16.5498C226.204 16.909 226.204 17.2682 226.326 17.7471C226.447 18.1062 226.568 18.4653 226.811 18.7048C227.053 18.9442 227.296 19.1837 227.66 19.4231C227.903 19.4231 228.266 19.5428 228.752 19.5428ZM233.847 12.0006H235.302V9.36679H237.244V12.0006H239.063V13.4372H237.244V18.1062C237.244 18.3456 237.244 18.4653 237.244 18.585C237.244 18.7048 237.244 18.8245 237.365 18.9442C237.365 19.0639 237.486 19.1837 237.608 19.1837C237.729 19.1837 237.85 19.3034 238.093 19.3034C238.214 19.3034 238.336 19.3034 238.457 19.3034C238.579 19.3034 238.699 19.3034 238.821 19.3034V20.8597C238.579 20.8597 238.336 20.8597 238.214 20.9794C237.972 20.9794 237.729 20.9794 237.608 20.9794C237.122 20.9794 236.637 20.9794 236.395 20.8597C236.031 20.74 235.788 20.6203 235.667 20.3808C235.424 20.1414 235.302 19.902 235.302 19.6626C235.182 19.3034 235.182 19.0639 235.182 18.7048V13.5569H233.726L233.847 12.0006Z" fill="#fff"/>
<path d="M163.607 8.64845H154.508L151.718 0.148438L148.928 8.64845H139.829L147.229 13.9161L144.439 22.4161L151.839 17.1484L158.997 22.2964L156.207 13.7963L163.607 8.64845Z" fill="#00B67A"/>
</g>
</svg>
