<svg width="167" height="32" viewBox="0 0 167 32" fill="none" xmlns="http://www.w3.org/2000/svg">
<path d="M0 24.6158V23.4614C2.09517 23.2048 2.35172 22.991 2.35172 21.3234V6.31515C2.35172 4.64757 2.09517 4.43377 0 4.17722V2.97998H10.5186C15.3076 2.97998 18.0441 4.77584 18.0441 8.36757C18.0441 11.4889 15.2221 13.0283 12.2717 13.3703C16.3765 13.5414 19.3696 15.4227 19.3696 18.7579C19.3696 22.6062 16.4621 24.6158 10.989 24.6158H0ZM7.56827 4.3055V12.7289H8.72276C11.5448 12.7289 12.9559 11.2752 12.9559 8.45308C12.9559 5.71653 11.3738 4.34826 8.68 4.34826H7.56827V4.3055ZM7.56827 14.2255V21.1951C7.56827 22.8627 8.20965 23.2903 9.96276 23.2903H10.2193C12.6993 23.2903 14.1103 21.751 14.1103 18.7152C14.1103 15.9358 12.6138 14.2683 9.27862 14.2683H7.56827V14.2255Z" fill="#563C5C"/>
<path d="M35.6609 14.4393V15.1662H25.6982C25.6126 19.1855 27.7506 21.58 30.6154 21.58C32.6678 21.58 34.0788 20.7676 35.2333 19.2283L35.7464 19.5276C34.934 22.7772 32.625 24.9152 28.905 24.9152C24.4154 24.9152 21.2085 21.751 21.2085 16.791C21.2085 11.4035 24.8002 7.85449 29.1188 7.85449C33.4375 7.85449 35.6609 10.6338 35.6609 14.4393ZM25.7837 13.8835H31.3423C31.3423 10.9759 30.6581 9.05173 28.8623 9.05173C26.9382 9.05173 25.9547 11.0614 25.7837 13.8835Z" fill="#563C5C"/>
<path d="M43.3145 8.15366H47.12V9.69297H43.3145V19.8695C43.3145 21.5799 43.9559 22.264 45.2814 22.264C46.0938 22.264 46.7779 22.0074 47.5476 21.4516L47.9752 22.0502C46.9062 23.7605 45.2814 24.8723 42.9297 24.8723C40.2786 24.915 38.3545 23.5468 38.3545 20.0406V9.69297H36.5159V8.83779C38.7821 7.8971 40.8345 6.144 42.2883 4.04883H43.3145V8.15366Z" fill="#563C5C"/>
<path d="M54.8592 8.15366H58.6647V9.69297H54.8592V19.8695C54.8592 21.5799 55.5005 22.264 56.8261 22.264C57.6385 22.264 58.3226 22.0074 59.0923 21.4516L59.5199 22.0502C58.4509 23.7605 56.8261 24.8723 54.4743 24.8723C51.8233 24.8723 49.8992 23.504 49.8992 19.9978V9.69297H48.0605V8.83779C50.3268 7.8971 52.3792 6.144 53.833 4.04883H54.8592V8.15366Z" fill="#563C5C"/>
<path d="M74.4426 14.4393V15.1662H64.4799C64.3944 19.1855 66.5323 21.58 69.3971 21.58C71.4495 21.58 72.8606 20.7676 74.0151 19.2283L74.5282 19.5276C73.7158 22.7772 71.4068 24.9152 67.6868 24.9152C63.1971 24.9152 59.9902 21.751 59.9902 16.791C59.9902 11.4035 63.582 7.85449 67.9006 7.85449C72.2192 7.85449 74.4426 10.6338 74.4426 14.4393ZM64.5654 13.8835H70.124C70.124 10.9759 69.4399 9.05173 67.644 9.05173C65.7199 9.05173 64.7364 11.0614 64.5654 13.8835Z" fill="#563C5C"/>
<path d="M82.5239 21.8793C82.5239 23.1621 83.2081 23.3331 85.0467 23.5041V24.6159H75.7681V23.5041C77.0936 23.4186 77.5639 23.2476 77.5639 22.2214V11.3607L75.7681 10.2917V9.56484L81.7115 7.85449H82.6522L82.5239 12.5152C83.8922 9.05173 84.8756 7.85449 86.757 7.85449C87.4412 7.85449 87.9115 8.06829 88.2108 8.3676V12.1304H87.5267C85.6025 12.1304 83.9777 12.2159 82.5239 13.5414V21.8793Z" fill="#563C5C"/>
<path d="M96.8056 21.1951C96.8056 22.8627 97.5752 23.2903 99.3711 23.2903H100.483C102.663 23.2903 103.732 21.922 106.255 17.6462H107.41L106.298 24.6158H89.2373V23.4614C91.3325 23.2048 91.589 22.991 91.589 21.3234V6.31515C91.589 4.64757 91.3325 4.43377 89.2373 4.17722V2.97998H99.2001V4.13446C97.0621 4.39102 96.8483 4.60481 96.8483 6.27239V21.1951H96.8056Z" fill="#563C5C"/>
<path d="M123.102 14.4393V15.1662H113.182C113.097 19.1855 115.234 21.58 118.099 21.58C120.152 21.58 121.563 20.7676 122.717 19.2283L123.23 19.5276C122.418 22.7772 120.109 24.9152 116.389 24.9152C111.899 24.9152 108.692 21.751 108.692 16.791C108.692 11.4035 112.284 7.85449 116.603 7.85449C120.879 7.85449 123.102 10.6338 123.102 14.4393ZM113.225 13.8835H118.783C118.783 10.9759 118.099 9.05173 116.303 9.05173C114.379 9.05173 113.396 11.0614 113.225 13.8835Z" fill="#563C5C"/>
<path d="M128.49 18.2875C127.977 18.8006 127.506 19.3565 127.506 19.9979C127.506 20.5965 127.891 20.9813 128.532 20.9813H135.032C138.88 20.9813 140.676 22.6061 140.676 25.3855C140.676 29.2765 136.828 31.4999 131.483 31.4999C126.822 31.4999 123.915 30.1317 123.915 27.6944C123.915 26.1123 125.368 25.3427 126.779 25.0006C125.497 24.4875 124.812 23.3758 124.812 22.093C124.812 20.1689 126.224 18.9717 127.763 18.0737C126.052 17.3041 124.855 15.893 124.855 13.6696C124.855 10.0779 127.848 7.93994 131.91 7.93994C133.065 7.93994 133.963 8.11098 134.732 8.36753L140.077 8.23925V10.1634H138.752L136.699 10.0779C137.811 10.8048 138.624 12.0875 138.624 13.6268C138.624 16.962 135.716 18.8861 131.697 18.8861C130.628 18.8006 129.516 18.6296 128.49 18.2875ZM127.378 25.5137C127.079 25.8558 126.95 26.3689 126.95 27.0103C126.95 28.9772 128.789 30.1744 131.697 30.1744C134.604 30.1744 137.255 29.3192 137.255 27.1386C137.255 25.9841 136.528 25.5565 135.16 25.5565H127.378V25.5137ZM134.048 13.5413C134.048 11.1468 133.321 9.05167 131.697 9.05167C130.115 9.05167 129.559 10.6337 129.559 13.1137C129.559 15.5937 130.328 17.6889 131.91 17.6889C133.492 17.6889 134.048 16.1068 134.048 13.5413Z" fill="#563C5C"/>
<path d="M155.043 21.238C155.043 22.1359 155.214 22.7773 155.983 22.7773C156.454 22.7773 156.839 22.649 157.138 22.5207L157.309 23.2476C156.368 24.2738 155.171 24.9152 153.546 24.9152C151.836 24.9152 150.639 23.9318 150.254 22.2642C149.313 23.5469 147.774 24.8297 145.55 24.8297C142.985 24.8297 141.274 23.3331 141.274 20.7676C141.274 18.0738 143.156 17.0049 145.379 16.1925L150.168 14.4821V11.6173C150.168 10.0352 149.655 8.92349 148.244 8.92349C146.919 8.92349 146.363 9.9497 146.363 11.4462C146.363 12.0876 146.448 12.729 146.619 13.4559L143.669 13.8407C142.814 13.5842 142.215 12.8573 142.215 11.7883C142.215 9.09453 144.994 7.81177 148.543 7.81177C152.648 7.81177 155 9.18004 155 13.0283V21.238H155.043ZM150.125 21.4518V15.7221L147.945 16.5773C146.748 17.0904 145.978 17.689 145.978 19.4421C145.978 21.0242 146.662 22.1787 148.244 22.1787C148.971 22.1787 149.441 21.9221 150.125 21.4518Z" fill="#563C5C"/>
<path d="M164.535 22.2641C164.535 23.2903 165.048 23.4186 166.374 23.5469V24.6586H157.737V23.5469C159.105 23.4614 159.575 23.2903 159.575 22.2641V3.66414L157.779 2.72345V1.95379L163.68 0.5H164.492V22.2641H164.535Z" fill="#563C5C"/>
</svg>
